<svg width="800" height="600" xmlns="http://www.w3.org/2000/svg">
 <g id="Layer_1">
  <title>Layer 1</title>
  <path id="svg_5" d="m307.89221,186.86834c-47.49704,0 -85.99999,38.50296 -85.99999,86c0,47.49704 38.50296,86 85.99999,86c47.49704,0 85.99999,-38.50296 85.99999,-86c0,-47.49704 -38.50296,-86 -85.99999,-86zm18.68639,129.01183c-0.46746,0.3787 -1.08284,0.76923 -0.6213,1.22485c0.46154,0.46154 -0.53254,0.77515 -0.53254,1.00592s0.61538,1.45562 0.30769,1.98817c-0.30769,0.54438 -0.53846,1.31953 -0.76923,1.78107c-0.23077,0.45562 -0.77515,0.91716 -0.61538,1.60947c0.14793,0.68639 -0.61538,0.45562 -0.61538,1.14793c0,0.68639 0.68639,0.38462 0.53254,1.23077c-0.14793,0.85207 -0.53254,1.08284 -0.53254,1.68639c0,0.61538 0.3787,1.46154 0.3787,1.69231s-0.3787,1.00592 -0.91716,1.60947c-0.54438,0.61538 -0.91716,1.00592 -0.85207,1.3787c0.08284,0.38462 0.61538,0.85207 0.53846,1.08876c-0.07692,0.21893 -0.76331,0.99408 -0.68639,1.53254c0.08284,0.53254 0.76331,0.31361 0.91716,0.68639c0.15385,0.38462 -0.91716,0.69822 -0.46154,1.08284c0.46154,0.3787 1.08284,0.30178 0.92308,1.23077c-0.11243,0.66272 0.3787,0.9645 0.74556,1.1716c-5.27219,1.30769 -10.7574,2.08284 -16.43195,2.08284c-37.63313,0 -68.2426,-30.60947 -68.2426,-68.2426c0,-12.26627 3.29586,-23.7574 8.98225,-33.71006c0.46746,-0.24852 0.81065,-0.40828 1.01183,-0.36686c0.38462,0.07692 0.46746,0.61538 1.08284,0.76923c0.61538,0.15385 1.15385,-0.46154 1.53846,-0.69231c0.3787,-0.23077 0.68639,-1.15385 0.30178,-1.07692c-0.38462,0.07692 -1.38462,0 -1.38462,0s1.08284,-0.61538 1.08284,-1s0.14793,-1 0.76331,-1.23077c0.60947,-0.23669 0.60947,-0.08284 0.22485,0.84024c-0.38462,0.92308 0.77515,0.53846 1.23077,0.15385s0.76923,-0.07692 1.60947,-0.61538c0.84615,-0.53846 0.84615,-0.84615 1.30769,-0.84615c0.46154,0 1.30769,0.84615 1.76923,0.53846c0.45562,-0.30769 1.76923,0.38462 2.53846,0.38462c0.76331,0 3.22485,1 3.69231,1c0.46154,0 1.84615,0.53254 1.92308,1.53254c0.07692,1 0.53254,0.92308 0.99408,0.92308s1.53846,0.38462 1.53846,0.76923c0,0.38462 -0.30769,1.92308 0.46154,2.30769c0.76331,0.3787 1.46154,1 1.76923,0.84615c0.30769,-0.15385 0,-1.3787 -0.3787,-1.53846c-0.38462,-0.15385 -0.15976,-0.69231 -0.30769,-1c-0.15385,-0.30178 0.46154,-0.30178 0.69231,0.23077c0.23077,0.53846 0.84615,1.53846 1.23077,1.53846c0.3787,0 1.23077,0.92308 0.99408,1.46154c-0.23077,0.53846 0.23077,1.30769 0.92308,1.30769c0.68639,0 1.53846,1.07692 1.84615,1.15385c0.30769,0.07692 0.69231,0.46154 0.69231,0.69231c0,0.23669 0.38462,1.53846 0.38462,2.07692c0,0.53254 -0.23669,2.68639 -0.31361,3.53254s0.61538,2.30769 1.38462,3.07692c0.76331,0.76923 1.45562,2.23077 1.91716,2.53846c0.46746,0.30769 0.76923,1.15385 1.46154,1.07692c0.69231,-0.07692 1.15385,0.46154 1.76923,1.53846c0.61538,1.07692 1.23077,2.84024 1.69231,2.99408c0.46154,0.15385 1.23077,0.69231 0.84024,1.07692c-0.3787,0.3787 -0.99408,1.23077 -0.30178,1.23077c0.69231,0 0.92308,-0.38462 1.46154,0.31361c0.53254,0.68639 1.23077,1.07101 1.14793,1.53846c-0.07692,0.45562 0.61538,0.60947 0.92308,0.68639c0.30769,0.07692 1,1.46154 1.69231,0.84615c0.69231,-0.61538 -0.91716,-1.53254 -1.38462,-1.92899c-0.46154,-0.3787 0,-1.22485 -1.07692,-2.07101c-1.07692,-0.84615 -0.92308,-1.46154 -1.69231,-2.07692c-0.76923,-0.61538 -1.3787,-1.15385 -0.61538,-1.69231c0.76923,-0.53846 0.84615,0.53846 1.15385,1.23077c0.30769,0.68639 1.91716,2.07692 2.60947,2.68639c0.69231,0.61538 1.92899,2.76923 2.30769,2.76923s1.46154,1.23077 1.46154,1.23077s0.60947,0.99408 0.3787,1.30178c-0.23077,0.30769 0.31361,1.46154 0.85207,1.76923c0.53254,0.30769 2.69231,1.30178 3,1.46154c0.30769,0.15976 0.91716,1.30769 1.76923,1.30769c0.84024,0 1.46154,0.08284 1.69231,0.31361c0.23077,0.22485 0.91716,1.14793 1.38462,0.61538c0.46154,-0.54438 0.53254,-0.77515 1.23077,-0.77515c0.69231,0 0.99408,0.53846 1.3787,0.92308c0.38462,0.38462 1.46154,1.39053 2,1.31361c0.53846,-0.07692 1.23077,0.61538 1.61538,0.3787s1,0.14793 1.30178,0.30769c0.31953,0.15385 1.38462,0.69822 1.31361,1.60947c-0.07692,0.92899 0.60947,1.15385 1.07692,1.38462c0.46154,0.23077 1.07692,0.76923 1.46746,1.15385c0.3787,0.37278 1.21893,0.45562 1.45562,0.68639c0.23077,0.23077 0.38462,0.69231 1.07692,0.30769c0.68639,-0.3787 0.54438,-1.07101 0.54438,-1.07101s0.76331,-0.15385 1.14793,0.15385c0.3787,0.29586 0.61538,1.30178 0.85207,1.45562c0.22485,0.15385 0.68047,1.30769 0.37278,2.14201c-0.30178,0.85799 -0.22485,1.69231 -0.53846,1.69231c-0.30769,0 -0.68639,1.00592 -1.15385,1.23669c-0.4497,0.23077 -1.68639,1.30769 -1.60947,1.69231c0.07692,0.37278 0.77515,1.52663 0.61538,2.07101c-0.14793,0.53846 -1.14793,1.15385 -0.91124,2c0.22485,0.85207 1.84615,1.08284 1.91124,1.84615c0.08284,0.77515 1.23669,2.46746 1.39053,3.23077c0.14793,0.76923 1.45562,1.60947 1.45562,2.68047c0,1.08876 1.84615,1.77515 2.23077,1.84615c0.37278,0.07692 1.07692,0.77515 1.60947,1.00592s1,0.68639 1.3787,1.30769s0.31361,1.54438 0.31361,1.76923c0,0.23077 -0.23077,2.60355 -0.46154,3.98817c-0.23669,1.39053 0.29586,2.46746 -0.15976,2.85799zm-49.6568,-71.4852c0.23077,0.07692 0.69231,0.53846 0.92308,0.53846c0.23669,0 1.38462,0.92308 1.69231,1.23077c0.31361,0.30769 0.31361,1.15385 -0.07692,1.23077s-0.61538,-0.84615 -0.69231,-1.23077c-0.07692,-0.38462 -0.84615,-0.38462 -1.23077,-0.61538c-0.38462,-0.23077 -1.2426,-1.36686 -0.61538,-1.15385zm99.07692,30.89941c-0.85207,1.07692 -0.76923,1.60947 -1.15385,1.69231c-0.3787,0.07692 0.38462,0.38462 0.53254,1.14793c0.13018,0.66272 -0.38462,1.32544 0.37278,1.93491c-2.87574,27.33136 -21.95266,49.90532 -47.43195,57.91124c-0.04142,-0.06509 -0.11243,-0.14793 -0.12426,-0.20118c-0.15976,-0.46154 -0.15976,-1.3787 0.3787,-1.68639c0.53846,-0.31361 1.84615,-1.3787 2.14793,-1.60947c0.30769,-0.23669 0.76923,-1.30769 0.53846,-1.46154c-0.22485,-0.15385 -1.37278,0 -1.53846,-0.23077c-0.15385,-0.23077 -0.15385,-0.54438 0.61538,-1.07692c0.76923,-0.53846 1.15385,-1.31361 1.46154,-1.53846c0.30769,-0.23077 0.91716,-0.69231 1.15385,-1.23669c0.22485,-0.53254 -0.2426,-0.23077 -0.69822,-0.23077s-0.69231,-0.84024 -0.69231,-1.22485s1.15385,0.15385 2.00592,0.30769c0.84615,0.14201 0.45562,-0.38462 0.3787,-0.84024c-0.07692,-0.46154 0.15385,-1.23669 0.6213,-1.00592c0.4497,0.23077 2.83432,-0.07692 3.14201,-0.15385c0.30769,-0.07692 1.14793,-1.45562 1.45562,-1.84615c0.31361,-0.38462 0.3787,-0.76331 0,-0.99408c-0.38462,-0.23669 -0.84615,-1.08876 -0.99408,-1.30769c-0.15385,-0.2426 -0.23077,-1.6213 -0.07692,-2.01183c0.14793,-0.37278 0,2.23077 1.07101,2.54438c1.08284,0.30769 1.69231,0.46154 2.69231,-0.46154c1,-0.91716 1.76331,-1.53846 1.84615,-2.14793c0.07692,-0.61538 0.30769,-1.23669 0.69231,-1.45562c0.38462,-0.23077 0.61538,0.60947 1.07692,-0.38462c0.46154,-1.00592 0.92308,-0.92899 1.38462,-1.76923c0.45562,-0.85207 -0.76923,-1.92308 0.14201,-2.54438c0.92899,-0.60947 2.54438,-1.3787 2.54438,-1.3787s0.46154,-0.23077 1.38462,-0.46154c0.91716,-0.22485 1.91716,-0.08284 2.22485,-0.53254c0.30769,-0.46746 0.61538,-1.46154 1.07692,-2c0.46746,-0.54438 1,-1.38462 0.76923,-1.76923c-0.23077,-0.38462 0.61538,-2.08284 0.53846,-2.53846c-0.07692,-0.46154 -0.76923,-1.54438 0.38462,-2.46154s2.3787,-2.31361 2.46154,-2.68639c0.07101,-0.38462 1,-2 0.91124,-2.77515c-0.07101,-0.76331 -0.91124,-1.68639 -1.4497,-1.92308c-0.54438,-0.21893 -1.69231,-0.29586 -2.15385,-0.91124s-1.76923,-1.23077 -2.23077,-1.07692c-0.45562,0.15385 -1.23077,0.30178 -1.84615,-0.08876c-0.61538,-0.37278 -1.60947,-0.84615 -1.99408,-1.14793c-0.39053,-0.30178 -1.38462,-0.53254 -1.84615,-0.53254s-0.38462,-0.31361 -1.07692,0.60947c-0.69231,0.92899 0,1.23669 -1.23077,1.07692c-1.23669,-0.14201 0.14793,-0.22485 0.85207,-1.14793c0.68047,-0.91716 -0.08284,-1.46154 -0.85207,-1.22485c-0.76923,0.23077 -0.23077,0.69231 -1.46154,0.92308c-1.22485,0.22485 -1.22485,-0.54438 -0.45562,-0.69231c0.76923,-0.15385 2.14793,-0.84615 2.14793,-1.14793c0,-0.31361 -0.15385,-1.15976 -0.76923,-1.15976s-0.46154,-0.76331 -1.3787,-1.7574c-0.92308,-1.00592 -2.07692,-1.6213 -3.00592,-1.47337c-0.91124,0.15385 -1.60947,0.38462 -2.07101,-0.4497c-0.46154,-0.85207 -1,-1.00592 -1.31361,-1.46154c-0.30178,-0.46154 -1.07692,0 -1.30769,-0.23077s-0.23077,-0.23077 -0.23077,-0.23077s-1,0.23077 -0.45562,-0.46154c0.53254,-0.69231 0.76331,-2 0.53254,-1.92308c-0.22485,0.07692 -0.61538,1.15976 -0.99408,1.08284c-0.3787,-0.07692 -0.08284,-0.23669 -0.85207,-0.69231c-0.76923,-0.46154 -1.99408,-0.07692 -1.99408,0.30769c0,0.38462 -0.38462,0.69231 -0.38462,0.69231s-0.23077,-0.22485 -0.46154,-0.69231c-0.23077,-0.46154 -1.30769,-0.53846 -1.84615,-0.07692c-0.53254,0.46154 -0.84024,-1.15976 -1.22485,-1.15976s-1.14793,0.38462 -1.53846,1.08876c-0.3787,0.68639 -0.22485,1.68639 -0.54438,1.60947c-0.29586,-0.07692 -0.37278,-1.3787 -0.29586,-1.84615c0.07101,-0.46746 0.91716,-1.23077 0.29586,-1.38462c-0.60947,-0.15385 -1.53254,0.76923 -1.91124,0.84615c-0.38462,0.07692 -1.15385,0.61538 -1.61538,1.23669c-0.45562,0.60947 -0.68639,0.99408 -1.15385,1.22485c-0.45562,0.23077 -1.14201,0 -0.98817,-0.23077c0.14793,-0.23077 -1.31361,-1.07101 -1.54438,-0.76923c-0.23669,0.30769 -0.91716,0.53846 -1.60947,0.85207c-0.69231,0.30769 -1.31361,-0.38462 -1.46154,-0.69231s-0.46746,-0.3787 -0.53846,-1.38462c-0.07692,-0.99408 0.15976,-2.07692 0.38462,-2.68639c0.22485,-0.61538 -1.15385,-1.84615 -1.69231,-1.77515c-0.53846,0.08876 -1.07692,0.6213 -1.60947,0.53846c-0.54438,-0.07101 -0.30769,-0.22485 -1.15385,-0.22485c-0.84615,0 -0.15385,-0.14793 0,-0.84615c0.14793,-0.68639 -0.30769,-1.61538 0.54438,-2.23077c0.84024,-0.61538 0.53846,-2.07692 0,-2.14793c-0.54438,-0.08284 -1.54438,0.23077 -2.23077,0.15385c-0.68639,-0.08284 -1.23077,0.53846 -1,1.22485c0.23077,0.69231 -0.38462,1.15385 -0.61538,1.08284c-0.23077,-0.07692 -0.53254,-0.46154 -1.38462,0.15385c-0.84024,0.60947 -1.14793,0.3787 -1.99408,-0.30769c-0.84615,-0.69822 -1.76923,-1.38462 -1.92308,-2.46154c-0.15385,-1.07692 -0.23669,-2.15385 0.07692,-2.76923c0.30178,-0.61538 0.30178,-1.68639 -0.15385,-1.84615c-0.46154,-0.14793 0.53254,-0.91716 1.07101,-1.07101c0.54438,-0.15385 1.38462,-0.84615 1.53846,-1.15385c0.15385,-0.30769 0.92308,-0.23669 1.76331,-0.23669c0.84615,0 1,0 1.84615,0.46154c0.84615,0.46154 1,-0.23077 1,-0.46154c0,-0.23077 0.30769,-0.69231 1.23077,-0.61538c0.92308,0.07692 2.22485,-0.30769 2.46154,-0.07692s0.68639,1.15385 1.14793,0.84615c0.46746,-0.30178 0.61538,-0.84615 0.77515,0.08284c0.14793,0.91716 0.53254,2.30769 1.23077,2.53846c0.68639,0.23077 0.30769,1.14793 0.99408,1.22485c0.68047,0.07692 1.00592,-1.45562 0.77515,-1.99408c-0.23669,-0.53254 -0.69822,-2.14793 -1.08284,-2.53254c-0.3787,-0.38462 -0.3787,-1.38462 0.3787,-1.69231c0.76923,-0.30769 2.61538,-1.84615 3.14793,-2.30178c0.54438,-0.46746 2,-0.85207 1.54438,-1.46746c-0.46154,-0.61538 -0.61538,-0.99408 -0.61538,-1.46154s0.46154,-0.30769 0.69231,0s1.14793,-0.46154 0.91716,-0.84615c-0.22485,-0.3787 -0.15385,-0.91716 0.38462,-0.84615c0.53846,0.07692 0.68639,-0.38462 0.46154,-0.69231c-0.23077,-0.30769 0.53846,-0.69231 1.07692,-0.53846c0.54438,0.15385 1.92308,-0.07692 2.15385,-0.38462c0.22485,-0.30769 -0.46154,-0.61538 -0.46154,-1.23077c0,-0.61538 0.91716,-1.15385 1.46154,-1.23077c0.53846,-0.07692 1.22485,0 1.30769,-0.23077c0.07101,-0.23077 0.84615,-0.84615 0.91716,-0.30769c0.08284,0.53846 0,1.46154 0.61538,1.46154c0.61538,0 1.37278,-0.69231 1.60947,-0.76331c0.22485,-0.07692 1.69231,-0.38462 2,-0.46154c0.30769,-0.07692 2.14793,-0.23077 1.92308,-0.76923c-0.23077,-0.53254 -0.46154,-1.07101 -0.69822,-1.30178c-0.23077,-0.23077 -0.45562,0.07692 -0.76923,0.46154c-0.30178,0.38462 -0.84615,0.38462 -0.99408,0.07692c-0.15385,-0.30178 0.07101,-1.22485 -0.46154,-0.92308c-0.54438,0.30769 -0.61538,0.61538 -0.92899,0.46154c-0.30769,-0.15385 -0.60947,-0.69231 -0.60947,-0.69231s0.76331,-0.3787 0.22485,-1.07692c-0.53254,-0.69231 -1.30769,-0.53846 -2.07101,-0.14793c-0.76923,0.3787 -0.69822,0.30178 -1.61538,0.53254s-1.38462,0.46154 -1.38462,0.46154s1.23669,-0.76331 1.76923,-1.23077c0.53846,-0.46154 1.23669,-0.69231 1.69231,-1.15385c0.46154,-0.46154 1.68639,0.23077 1.68639,0.23077s0.6213,-0.61538 0.6213,-0.23077s-0.15976,1.38462 0.30178,1.38462c0.46746,0 1.76923,-0.61538 1.2426,-0.77515c-0.5503,-0.15385 0.76331,0 1.29586,-0.38462c0.54438,-0.38462 1.14793,-0.38462 1.46154,-0.53254c0.30769,-0.15385 0.54438,-0.84615 1.07692,-0.84615c0.54438,0 0.76923,0.69231 0,1.15385s-0.84615,1.61538 -1.23077,1.92308c-0.3787,0.30769 -0.15385,0.69231 0.46154,0.61538c0.61538,-0.07692 1.14793,0.07692 1.69231,-0.07692s0.84615,0.15385 0.99408,0.38462c0.15385,0.23077 0.61538,-0.23077 0.61538,-0.23077s1,-0.23077 1.30769,0.15385c0.31361,0.3787 0.54438,-0.23077 0.31361,-0.61538c-0.23077,-0.3787 -0.54438,-0.76331 -0.76923,-1.23077c-0.23077,-0.46154 -0.53846,-0.61538 -1.14793,-0.46154c-0.61538,0.15385 -0.76923,-0.15385 -1.15385,-0.3787c-0.38462,-0.23669 -0.69822,0.30769 -0.38462,-0.23669c0.31361,-0.53254 0.46154,-0.69231 0.69231,-1.15385c0.23077,-0.46154 1.23669,-1.30769 0.23077,-1.53254c-1,-0.23669 -1.31361,-0.38462 -1.46154,-0.84615c-0.15385,-0.46154 -1.30769,-1.30769 -1.60947,-1.30769c-0.31361,0 -1.3787,0 -1.46154,-0.38462c-0.07692,-0.38462 -0.84615,-1.23077 -1.23077,-1.61538c-0.3787,-0.38462 -1.84615,-2.07692 -2.07692,-2.23077c-0.23077,-0.15385 -0.53846,-0.07692 -1.23077,0.84615c-0.68639,0.92899 -1.30178,1.08284 -1.84615,0.85207c-0.53846,-0.23077 -0.61538,-0.15385 -1.14201,-0.76923c-0.5503,-0.61538 0.53254,-0.69231 0.30178,-1.07692c-0.23669,-0.3787 -1.46154,-0.53846 -2.23077,-0.61538c-0.76923,-0.07692 -1.30769,-0.92308 -2.46154,-1c-1.14793,-0.07692 -2.53254,0.15385 -2.91716,0.15385c-0.3787,0 -0.3787,0.53846 -0.53254,1.38462c-0.15976,0.84615 0.53254,1.07692 -0.15976,1.23077c-0.68639,0.15385 -1,0.23077 -0.30769,0.53846c0.69231,0.30769 1.61538,1.53846 1.61538,1.53846s0,0.69231 -0.54438,1.07692c-0.53254,0.38462 -1.07692,0.76923 -1.3787,0.31361c-0.31361,-0.46746 -1.15385,-0.38462 -0.91716,0.07692c0.22485,0.46154 0.68639,0.69231 0.68639,1.15385c0,0.45562 0.69231,1.60947 0.23077,1.99408c-0.46154,0.38462 -0.99408,0.08284 -1.3787,0.15385s-0.77515,-0.61538 -0.46154,-0.76923c0.30178,-0.15385 -0.08284,-1.30769 -0.08284,-1.30769s-0.91716,1.30769 -0.84615,0.61538c0.08284,-0.69231 -0.3787,-0.76923 -0.3787,-1.30769c0,-0.53846 -0.46746,-0.76923 -1.14793,-0.61538c-0.69822,0.15385 -1.53846,-0.23669 -2.85207,-0.46746c-1.30178,-0.23077 -1.84024,-0.3787 -2.91716,-0.92308c-1.07692,-0.53846 -1.46154,-0.15385 -2,-0.07692c-0.53846,0.07692 -0.30769,-1.07692 -1,-1.22485c-0.68639,-0.15976 -1.07101,0.14793 -1.22485,-0.85207c-0.15385,-0.99408 0.23077,-1.23077 1.91716,-2.30769c1.69231,-1.07692 1.46154,-1.53846 2.76923,-1.69231c1.30178,-0.15385 1.92308,0.15385 1.92308,-0.23077s0.30769,-1.92308 0.30769,-1.15385s1.5503,0.81657 0.85207,1.35503c-0.68639,0.53846 -0.30769,0.61538 0.23669,0.61538c0.53846,0 1.53254,-0.53846 1.53254,-0.53846s1.23077,-0.53846 1.53846,-0.07692c0.31361,0.46154 0.31361,0.92308 0.85207,0.92308s1.68639,-0.61538 0.68639,-1.15385c-0.99408,-0.53846 -1.60947,-0.46154 -2.22485,-1.07692s-0.46154,-0.38462 -1.15385,-0.23077c-0.68639,0.15385 -0.68639,-0.23077 -0.92308,-0.23077s-0.61538,0.15385 -0.76923,-0.15385c-0.14793,-0.30769 0.08284,-0.38462 0.85799,-0.38462c0.76331,0 1.68639,0.23077 1.68639,0.23077s0.91716,-0.30769 1.14793,-0.38462c0.23077,-0.07692 1.46154,-0.23077 1.23077,-0.91716c-0.23669,-0.69231 -1,-0.69231 -1.23077,-0.92308s0.46154,-0.53254 0.84615,-0.69231c0.38462,-0.15385 1.46154,0 1.46154,0s0.69231,0.07692 0.69231,-0.23077s-0.16568,-0.69231 0.30178,-0.46154s0,0.92308 0.69231,0.76923c0.68639,-0.15385 0.84615,0 1.22485,0.23077c0.38462,0.23077 -0.07692,1.15385 -0.45562,1.30769c-0.38462,0.14793 -1,0.45562 -0.15385,0.53254c0.85207,0.08284 1.45562,0.08284 1.45562,0.08284s0.54438,-0.53846 0.77515,-1c0.22485,-0.46154 0.61538,-0.15385 0.91716,0c0.30769,0.14793 1.46154,0.38462 0.38462,0.69231c-1.08284,0.30769 -1.30769,0.69231 -1.53846,1.07692c-0.22485,0.38462 -0.31361,0.61538 -1.30769,0.38462c-1.00592,-0.23077 -1.53846,-0.15385 -1.76923,0.23077c-0.23077,0.3787 -0.07692,1.61538 0.31361,1.46154c0.37278,-0.15385 0.76331,-0.15385 1.22485,-0.30769c0.46154,-0.15385 2.30769,0.15385 2.76331,0.07692c0.46154,-0.07692 1.23669,0.76923 1.46746,0.61538c0.23077,-0.15385 0.69231,0.30769 1.14793,0.61538c0.46154,0.30769 0.30769,-0.69231 1.14793,-0.07692c0.85207,0.61538 0.38462,0.61538 0.85207,0.61538c0.4497,0 1.45562,0.07692 1.45562,0.07692s0.08284,-0.76331 0.85207,-0.61538c0.76923,0.15385 1.4497,1 1.37278,0.3787c-0.07101,-0.60947 0.07692,-1.07101 -0.53254,-1.53254c-0.61538,-0.46154 -1.60947,-0.76923 -1.76923,-1c-0.15385,-0.23077 -0.30769,-0.53846 -0.07692,-0.69231c0.23077,-0.14793 1.30769,0.07692 1.91716,0.46746c0.61538,0.38462 1.15385,0.76923 1.61538,0.46154c0.45562,-0.30769 1.00592,-0.46154 1.23077,-0.69231c0.22485,-0.23669 0.76923,-0.92308 0.76923,-0.92308s-2.31361,-0.30178 -2.60947,-0.69231c-0.31361,-0.38462 -1.39053,-0.92308 -1.69822,-0.92308s-1.14793,0.53846 -1.45562,-0.23077s-0.30769,-1.69231 -0.6213,-1.76923c-0.29586,-0.07692 -3.53254,-0.53846 -3.98817,-0.76923c-0.46154,-0.23077 -2.30769,-0.76923 -3,-1.15385s-1.69231,-0.92308 -2.30177,-0.92308c-0.61538,0 -3.15385,0.30769 -3.61538,0.23077c-0.46154,-0.07692 -1.84615,0.15385 -2.38462,0.23077c-0.53846,0.07692 0.69231,1.07692 -0.45562,1.30769c-1.15385,0.23077 -1,0.38462 -0.76923,-0.76923c0.22485,-1.15385 -0.77515,-1.46154 -1.76923,-1c-1,0.46154 -2.61538,0.76923 -2.23077,1.30769c0.38462,0.53846 -0.07101,0.92899 0.69231,1.46154c0.76923,0.53846 1.08284,0.69231 2.07101,0.61538c1.00592,-0.07692 2.00592,0.14793 2.00592,0.14793s0,0.92899 -0.3787,1.07692c-0.38462,0.15385 -1,0.15385 -1.15976,0.61538c-0.14793,0.46154 -0.91716,0.69231 -0.91716,0.46154s0.38462,-1 -0.15385,-1.38462c-0.53254,-0.38462 -0.69231,-0.46154 -1.30769,-0.07692c-0.61538,0.38462 -0.68639,0.53846 -1,-0.07692c-0.30769,-0.61538 -1.23077,-1.15385 -1.23077,-1.15385s-0.61538,-0.76331 -1.07692,-1.14793c-0.45562,-0.38462 -1.30178,-0.30769 -1.38462,0.07692c-0.07692,0.3787 0.15385,0.76331 0.46154,1.46154c0.30769,0.69231 0.61538,1.99408 0.07692,2.07692c-0.53846,0.07692 -0.61538,0.15385 -1.15385,0.30769c-0.53846,0.15385 -0.76923,-0.23077 -0.76923,-0.84615s-0.23669,-1.15385 -0.07692,-1.38462c0.15385,-0.23077 -0.61538,0.15976 -1.38462,0c-0.76923,-0.14793 -1.3787,0.30769 -0.61538,0.54438c0.76923,0.23077 0.92899,1.14793 0.23077,1.3787c-0.69231,0.23077 -3.30769,0 -4.15385,0s-2.07101,0.23077 -2.30769,-0.23077c-0.23077,-0.46154 0.69822,-0.76331 1.23077,-0.76331c0.53846,0 2.14793,0.07101 2.76331,-0.76923c0.61538,-0.84615 -0.76923,-1 -1.3787,-1c-0.61538,0 -1.08284,-0.23077 -1.76923,-0.91716c-0.69822,-0.69231 0.46154,-1.15385 0.30769,-1.46154c-0.15385,-0.30769 -0.92308,-0.08284 -1.60947,-0.08284c-0.69231,0 -1.76923,-0.53254 -1.76923,0.08284c0,0.61538 0.84615,2.3787 0.30769,1.99408c-0.53846,-0.3787 -0.46154,-0.92308 -0.84615,-1.38462c-0.38462,-0.46154 -0.99408,-0.38462 -1.76923,-0.30769c-0.76331,0.07692 -2.07101,0.30769 -2.45562,0.23077c-0.3787,-0.07692 -0.07692,-0.07692 -0.92308,-0.46154c-0.84024,-0.38462 -1.23077,-0.30769 -1.84615,-0.69231c-0.60947,-0.39645 -0.07101,-0.54438 -1.14793,-0.6213c-1.07101,-0.07692 -0.99408,0.53254 -2.07101,0.38462c-1.07692,-0.15385 -1.38462,0.07692 -2.46154,0c-1.07692,-0.07692 -1.60947,-0.15385 -1.76923,0.38462c-0.14793,0.53846 -0.46154,1.46154 -0.92308,1.46154c-0.45562,0 -1,0.53846 0.46154,0.61538c1.46154,0.07692 0.6213,0.76331 1.92308,0.69231c1.30769,-0.07692 2.46154,-0.07692 2.76923,-0.69231c0.30769,-0.61538 0.53846,-0.61538 0.69231,-0.38462c0.14793,0.23077 1.30178,1.60947 1.30178,1.60947s0.77515,0.61538 1.08284,0.76923c0.30178,0.15385 -0.30769,0.84615 -0.92308,0.46154c-0.61538,-0.38462 -1.76923,-0.30178 -2.23077,-0.68639c-0.46154,-0.38462 -2.53846,-0.38462 -3.07692,-0.30769c-0.53254,0.07692 -1.46154,-0.23077 -1.76923,-0.23077c-0.30178,0 -1.30769,0.76923 -1.30769,0.76923s-0.38462,-0.6213 -0.60947,-0.92899c-0.23077,-0.30769 -0.61538,0.30769 -0.92308,0.38462c-0.30769,0.07692 -1.23077,-0.61538 -2.15385,-0.30769c-0.92308,0.30769 -0.61538,0.61538 -1.92308,0.53846s-1.60947,-0.30769 -2.07101,-0.23077c-0.46746,0.07692 -0.46746,0.07692 -0.46746,0.07692s0.07692,0.30769 -0.45562,0.61538c-0.53846,0.30769 -0.92899,0.69231 -1.31361,0.23077c-0.3787,-0.46154 -0.60947,-0.46154 -0.84024,-0.53846c-0.23669,-0.07692 -0.69822,-0.46154 -1.69231,-0.23669c-1,0.23669 -2.53846,-0.30178 -2.84024,-0.30178c-0.23669,0 -1.85207,-0.08876 -2.90533,-0.19527c12.47929,-13.56213 30.31952,-22.13018 50.16568,-22.13018c12.59171,0 24.36094,3.48521 34.49704,9.45562c-0.69231,0.42604 -1.88757,0.35503 -2.29586,0.13609c-0.46154,-0.25444 -0.93491,-0.46154 -2.81065,-0.36095c-1.87574,0.10651 -3.93491,0.72189 -3.52071,1.33728c0.42604,0.61538 -0.84024,0.97633 -1.16568,0.66864c-0.32544,-0.30769 -1.8284,0.35503 -1.73373,0.97633c0.09467,0.61538 -0.23077,1.33136 -1.0355,1.17751c-0.7929,-0.15976 -1.35503,0.35503 -1.40237,0.86391c-0.04142,0.51479 -1.8284,0.86982 -1.9645,0.86982c-0.14201,0 -2.43787,-0.04734 -1.59763,0.56213c0.57396,0.40828 0.88757,0.15976 1.59763,0.30769c0.70414,0.15385 1.26627,1.28402 1.63905,1.43787c0.36686,0.15385 0.88757,0 1.11834,-0.30769c0.23669,-0.30769 0.56213,-1.38462 0.56213,-1.38462s0,1.02367 0.57396,1.23077c0.56213,0.2071 1.95858,-0.15385 2.33728,-0.10059c0.3787,0.04734 2.5858,0.36095 3.18343,0.66272c0.61538,0.30769 2.10651,0.51479 2.53254,1.17751c0.42012,0.66864 0.47337,2.97633 0.70414,3.23077c0.23669,0.25444 1.02959,-0.82249 1.21302,-1.07692c0.18343,-0.26036 1.1716,-0.10651 1.50296,0.24852c0.33136,0.36095 1.07692,1.23077 1.0355,1.59172c-0.05917,0.36686 -0.19527,0.92308 -0.47337,0.72189c-0.28402,-0.20118 -0.75148,-0.14793 -0.56805,-0.56213c0.18935,-0.40828 0.28402,-1.28402 -0.08876,-1.28402c-0.3787,0 -0.70414,0 -0.70414,0s-0.71006,-0.2071 -1.17751,0.56213s-0.08876,1.53846 0.23669,1.53846s1.08876,0 1.08876,0.20118c0,0.2071 -0.80473,0.82249 -0.7574,1.18343c0.05325,0.36095 0.65089,1.5858 0.85207,1.84615c0.18343,0.25444 1.16568,0.50888 1.44379,0.56805c0.28994,0.04734 -0.6568,0.10059 -0.4142,0.45562c0.23669,0.36095 0.60355,1.23077 1.11834,1.43787c0.51479,0.2071 1.97041,1.12426 2.14793,1.53846c0.18935,0.40828 1.31361,-0.30769 1.5503,-0.36095c0.23669,-0.04734 0.18935,1.07692 0.84615,1.13018c0.65089,0.04734 0.88757,-0.10651 1.4497,-0.56805s0.42604,-1.07692 0.46746,-1.53846c0.05325,-0.46154 0,-0.81657 0.61538,-0.66864c0.61538,0.15385 0.93491,-0.10651 0.88757,-0.61538c-0.04734,-0.51479 -0.56213,-1.13018 0.4142,-1.28402c0.98817,-0.15385 1.50296,-0.81657 2.11243,-0.81657c0.60947,0 2.30177,0.25444 2.47929,0c0.18935,-0.25444 0.98817,-1.43787 1.50296,-1.48521c0.39645,-0.04142 1.32544,-0.12426 2.27811,-0.24852c9.36095,11.15385 15.15384,25.34911 15.81657,40.85799c-0.69822,0.94083 -0.07101,1.80473 0.12426,2.4142c0.00592,0.17751 0.02959,0.3432 0.02959,0.52071c0,0.80473 -0.09467,1.59172 -0.12426,2.39053c-0.00592,0.01183 -0.00592,0.02367 -0.01775,0.0355zm-57.49112,-25.59763c-0.3787,0.07692 -1,-0.30769 -1,-0.84615s-0.53846,1 -0.23669,1.46154c0.31361,0.46154 -0.61538,1 -0.91716,1s-0.53846,-0.68639 -0.46154,-1.3787c0.08284,-0.69231 -0.45562,-1.30769 -1.30769,-1.23077c-0.84615,0.08284 -1.23077,0.76923 -1.53254,1c-0.31361,0.23077 -0.31361,1.53254 -0.23669,1.84615s0.07692,1.39053 -0.68639,1.30769c-0.69822,-0.07692 -0.54438,-1.3787 -0.46746,-1.84615c0.08284,-0.46154 -0.23077,-1.61538 0.08284,-2.22485c0.31361,-0.61538 1.22485,-0.84615 1.84615,-0.92308s1.91716,0.38462 2.14793,0.30769c0.23669,-0.08284 1.31361,-0.08284 1.84615,0c0.53846,0.06509 1.30178,1.4497 0.92308,1.52663zm1.3787,0.23077c0.23669,0.15385 1.84024,-0.23077 2.15385,0.15385c0.30178,0.38462 -0.31953,0.46154 -1.08284,0.76923c-0.76331,0.30769 -1,0.23077 -1.30769,0.61538s-1.30769,0.53254 -1.76923,0.99408c-0.46154,0.46746 -1.28402,0.73964 -1.45562,0.38462c-0.23669,-0.46154 0.07692,-0.23077 0.14793,-0.46154c0.07692,-0.23077 1.4497,-0.76331 1.4497,-0.76331s1.63314,-1.84615 1.86391,-1.69231zm-6.14793,-2.69231c-0.22485,0.07692 -1.07692,-0.15385 -1.77515,-0.15385c-0.68639,0 -0.53846,-0.46154 -0.84615,-0.3787c-0.30178,0.07692 -0.99408,0.23077 -1.46154,0.46154c-0.46154,0.23077 -1.23077,0.17751 -1.23077,-0.23669c0,-0.61538 0.30769,-0.46154 1.30769,-0.84615c1,-0.38462 2.08284,-1.46154 2.53846,-1c0.46154,0.46154 1.30769,1 1.84615,1.07692c0.54438,0.08284 -0.15385,1 -0.3787,1.07692zm-7.8639,-23.85207c-0.46746,0.15385 -2.05325,0.82249 -1.89941,1.17751c0.05917,0.13609 0.46154,0.40828 1.12426,0.30769c0.66864,-0.10651 1.63314,-0.2071 2.10059,-0.25444c0.46154,-0.05325 0.56213,-0.82249 0.05325,-0.86982c-0.51479,-0.05325 -0.92308,-0.51479 -1.3787,-0.36095zm-5.68639,0.61538c-0.36095,0.15385 -1.43787,-0.25444 -2,0.10651c-0.36095,0.22485 -0.15385,0.97041 0.4142,1.01775c0.56213,0.05325 1.53254,-0.35503 1.63314,-0.04734c0.10651,0.30769 0.46154,1.69231 1.38462,1.23077c0.92308,-0.46154 0.86982,-0.86982 1.12426,-0.92308c0.25444,-0.05325 -0.04734,-1.17751 -0.46154,-1.43787c-0.40828,-0.25444 -1.73964,-0.10059 -2.09467,0.05325zm-1.85207,-4.35503c0.10059,0.26036 -0.04734,0.46154 0.66864,0.56213c0.71598,0.10651 1.02367,0.2071 1.43787,0.2071c0.40828,0 0.24852,-0.66864 -0.10651,-1.12426c-0.36095,-0.46154 -0.25444,-0.40828 -1.17751,-0.66864c-0.92308,-0.25444 -1.84615,-0.25444 -2.46154,-0.2071c-0.61538,0.05325 -1.28402,-0.10059 -1.43787,0.61538c-0.07692,0.36686 0.4142,0.66272 1.02959,0.66272s1.94675,-0.30178 2.04734,-0.04734zm1.33728,2.81657c0.25444,0.56213 0.25444,0.30178 0.97633,0.36095c0.71006,0.05325 1.27219,-0.71598 1.32544,-0.97041c0.05325,-0.26036 -0.36095,-0.76923 -1.33136,-0.66864c-0.97633,0.10059 -3.94675,-0.15385 -4.35503,0.20118c-0.39053,0.3432 0,1.3787 -0.15385,1.48521c-0.15385,0.10059 0.05325,0.56213 0.45562,0.46154c0.40828,-0.10059 0.61538,-1.07692 0.92899,-1.07692c0.30769,0.00592 1.89941,-0.35503 2.15385,0.2071zm-9.63905,-2.10059c0.30769,0.25444 1.08284,0.04734 1.02367,-0.2071c-0.04734,-0.25444 0.31361,-1.28402 -0.30178,-1.33136c-0.61538,-0.04734 -1.47929,0.56805 -2.40828,0.87574c-0.59763,0.19527 -0.46154,0.76923 -0.05325,0.76923s1.43787,-0.36095 1.73964,-0.10651zm4.36686,0.92308c-0.51479,0.25444 -0.67456,0.40828 -1.13018,0.30769c-0.46154,-0.10059 -0.46154,-0.92308 -1.28402,-0.76923c-0.81657,0.15385 -0.97041,0.61538 -1.22485,0.82249s-0.82249,0.36095 -1.02367,0.25444c-0.20118,-0.10059 -1.38462,-0.76331 -1.38462,-0.76331s-2.46154,-0.10651 -2.56213,-0.4142c-0.10059,-0.30769 -0.50888,-0.81657 -1.63905,-0.71598s-3.07692,0.76923 -3.38462,0.76923c-0.30769,0 0.36686,0.61538 -0.05325,0.61538c-0.40828,0 -0.91716,-0.04734 -1.07101,0.40828c-0.10651,0.31361 0.46154,0.30769 1.11834,0.30769c0.66272,0 1.74556,0 2.05325,-0.15385c0.30769,-0.15385 1.84615,-0.51479 1.7929,-0.05325c-0.05325,0.46746 0.61538,1.17751 0.97041,1.07692c0.36095,-0.10059 1.08284,-0.76923 1.43787,-0.50888c0.36095,0.25444 0.4142,0.86391 0.76923,1.02367c0.36095,0.14793 1.33728,0.14793 1.79882,0c0.45562,-0.15976 1.73964,-0.15976 2.30177,-0.05325c0.56213,0.10651 2.2071,0.40828 2.36095,0.10651c0.15385,-0.31361 0.61538,-0.36095 0.66272,-0.66864s0.30178,-1.27811 0.30178,-1.27811s-0.30178,-0.56805 -0.81065,-0.31361zm25.94674,53c-0.70414,0.12426 -0.53846,1.49112 0.30769,1.2426c0.84615,-0.24852 0.39053,-1.37278 -0.30769,-1.2426zm6.68639,-1.83432c-0.61538,-0.15385 -1.30769,0 -1.76923,0.07692c-0.46154,0.07692 -1.76923,1.23077 -1.76923,1.23077s0.84615,0.15385 1.3787,0.15385c0.54438,0 0.85207,0.30178 1.30769,0.53254c0.46154,0.23669 1.30769,-0.30769 1.60947,-0.30769c0.31361,0 0.69822,0.92308 0.77515,-0.07692c0.08284,-1 -0.91716,-1.45562 -1.53254,-1.60947zm-21.4142,-49.83432c-0.25444,-0.61538 -1.53254,-0.82249 -1.79882,-0.2071c-0.22485,0.53846 2.05325,0.82249 1.79882,0.2071zm14.6568,46.06509c0.84615,-0.15385 0.3787,-0.85207 -0.31361,-0.76923c-0.69822,0.07692 -0.53846,0.92308 0.31361,0.76923zm10.21893,4.75148c-0.70414,0.13018 -0.54438,1.49704 0.30178,1.24852c0.85207,-0.24852 0.39053,-1.37278 -0.30178,-1.24852zm-9.30769,-2.28994c-0.53254,0.07692 -1.68639,-0.53254 -2.30177,-1.07692c-0.61538,-0.53846 -1.76923,-0.53846 -2.23077,-0.53846c-0.45562,0 -2.30769,0.53846 -2.30769,0.53846c-0.07692,0.76923 0.69231,0.53846 1.61538,0.53846s2.53846,-0.15385 2.83432,0.23077c0.31361,0.3787 1.69231,0.99408 2.08284,1.30769c0.3787,0.30769 1.60947,0.38462 1.68639,0.07692s-0.84024,-1.15385 -1.3787,-1.07692zm-9.16568,-49.08876c-0.76923,-0.05325 -1.74556,-0.05325 -2.36095,0c-0.61538,0.04734 -1.07692,-0.40828 -1.53846,-0.66864c-0.45562,-0.25444 -1.48521,-1.07692 -2.09467,-1.17751c-0.61538,-0.10059 -0.50888,-0.10059 -1.7929,-0.40828c-0.65089,-0.15976 -1.73964,-0.36095 -1.73964,-0.50888c0,-0.15385 -0.30769,0.71598 0.25444,0.97633c0.56213,0.25444 1.48521,0.71598 2.14793,0.97041c0.67456,0.25444 1.94675,0.30769 2.36095,0.82249c0.40828,0.50888 1.7929,0.92308 1.7929,0.92308l1.63905,0.15385c0,0 1.13018,-0.25444 2.30769,-0.15385c1.17751,0.10059 2.91716,0.25444 3.89941,0.2071c0.9645,-0.04734 1.11834,-0.36095 1.23077,-0.56213c0.09467,-0.2071 -1.79882,-0.61538 -2.26627,-0.56213c-0.4497,0.0355 -3.07692,0.0355 -3.84024,-0.01183zm2.86391,11.78698c-0.20118,0.23077 0.92899,0.56213 1.13018,0.25444c0.20118,-0.30178 -0.60355,-0.81657 -1.13018,-0.25444zm3.44379,1.07101c0.50888,-0.2071 0.25444,-0.82249 -0.46746,-0.61538c-0.81657,0.23669 -0.05325,0.82249 0.46746,0.61538z" stroke="#000" fill="#fff"/>
 </g>
</svg>